<?xml version="1.0" encoding="utf-8"?>
<!-- Generator: Adobe Illustrator 16.0.0, SVG Export Plug-In . SVG Version: 6.00 Build 0)  -->
<!DOCTYPE svg PUBLIC "-//W3C//DTD SVG 1.1//EN" "http://www.w3.org/Graphics/SVG/1.1/DTD/svg11.dtd">
<svg version="1.1" id="Capa_1" xmlns="http://www.w3.org/2000/svg" xmlns:xlink="http://www.w3.org/1999/xlink" x="0px" y="0px"
	 width="250px" height="150px" viewBox="0 0 250 150" enable-background="new 0 0 250 150" xml:space="preserve">
<g>
	<path fill="#F5E866" d="M125.318,3C85.37,3,52.985,35.384,52.985,75.333c0,15.245,4.72,29.385,12.772,41.047l33.35-57.763
		l2.928,1.69c-2.698,4.052-4.273,8.917-4.273,14.15c0,13.076,9.816,23.851,22.48,25.378v16.304h-7.609
		c-1.221,0-2.21,1.411-2.21,3.153c0,1.741,0.989,3.153,2.21,3.153h7.609v4.466c0,1.561,1.384,2.825,3.091,2.825
		s3.091-1.265,3.091-2.825v-4.466h7.483c0.491,0,0.942-0.231,1.31-0.617l-14.819,25.667c1.626,0.109,3.266,0.17,4.92,0.17
		c39.948,0,72.333-32.385,72.333-72.333C197.651,35.384,165.267,3,125.318,3z"/>
	<path fill="#C4A31F" d="M133.908,122.446h-7.483v4.466c0,1.561-1.384,2.825-3.091,2.825s-3.091-1.265-3.091-2.825v-4.466h-7.609
		c-1.221,0-2.21-1.412-2.21-3.153c0-1.742,0.989-3.153,2.21-3.153h7.609V99.836c-12.664-1.527-22.48-12.303-22.48-25.378
		c0-5.234,1.575-10.098,4.273-14.15l-2.928-1.69l-33.35,57.763c12.176,17.634,31.977,29.594,54.641,31.116l14.819-25.667
		C134.851,122.215,134.399,122.446,133.908,122.446z"/>
</g>
<g>
	<circle fill="none" stroke="#903C85" stroke-width="8" stroke-miterlimit="10" cx="123.333" cy="74.458" r="25.571"/>
	<path fill="#903C85" d="M133.908,116.14h-7.483V99.716c0-1.56-1.384-2.825-3.091-2.825s-3.091,1.266-3.091,2.825v16.424h-7.609
		c-1.221,0-2.21,1.411-2.21,3.153c0,1.741,0.989,3.153,2.21,3.153h7.609v4.466c0,1.561,1.384,2.825,3.091,2.825
		s3.091-1.265,3.091-2.825v-4.466h7.483c1.221,0,2.211-1.412,2.211-3.153C136.119,117.551,135.129,116.14,133.908,116.14z"/>
	<path fill="#903C85" d="M159.74,43.814c1.29-1.343,1.247-3.478-0.096-4.768l-0.608-0.584c-1.343-1.29-3.478-1.247-4.768,0.096
		l-14.795,15.401c-1.29,1.343-1.247,3.478,0.096,4.768l0.608,0.584c1.343,1.29,3.477,1.247,4.768-0.096L159.74,43.814z"/>
	<path fill="#903C85" d="M163.158,54.583l1.725-17.171c0.127-0.468,0.158-0.971,0.066-1.479c-0.13-0.716-0.479-1.335-0.962-1.808
		c-0.03-0.03-0.063-0.057-0.093-0.086c-0.031-0.028-0.061-0.059-0.094-0.085c-0.508-0.445-1.154-0.743-1.877-0.816
		c-0.516-0.052-1.014,0.019-1.471,0.183l-16.981,3.075c-1.832,0.332-3.049,2.086-2.717,3.919s2.087,3.049,3.919,2.717l13.105-2.373
		l-1.331,13.251c-0.187,1.854,1.165,3.506,3.019,3.692C161.319,57.787,162.973,56.435,163.158,54.583z"/>
	<path fill="none" stroke="#903C85" stroke-width="3" stroke-miterlimit="10" d="M137.664,70.641c0,1.332-1.08,2.412-2.411,2.412
		h-22.996c-1.332,0-2.412-1.08-2.412-2.412l0,0c0-1.332,1.08-2.412,2.412-2.412h22.996
		C136.584,68.229,137.664,69.309,137.664,70.641L137.664,70.641z"/>
	<path fill="none" stroke="#903C85" stroke-width="3" stroke-miterlimit="10" d="M137.664,79.273c0,1.331-1.08,2.411-2.411,2.411
		h-22.996c-1.332,0-2.412-1.08-2.412-2.411l0,0c0-1.332,1.08-2.412,2.412-2.412h22.996
		C136.584,76.861,137.664,77.941,137.664,79.273L137.664,79.273z"/>
</g>
</svg>
