<?xml version="1.0" encoding="utf-8"?>
<!-- Generator: Adobe Illustrator 16.0.0, SVG Export Plug-In . SVG Version: 6.00 Build 0)  -->
<!DOCTYPE svg PUBLIC "-//W3C//DTD SVG 1.1//EN" "http://www.w3.org/Graphics/SVG/1.1/DTD/svg11.dtd">
<svg version="1.1" id="Capa_1" xmlns="http://www.w3.org/2000/svg" xmlns:xlink="http://www.w3.org/1999/xlink" x="0px" y="0px"
	 width="250px" height="150px" viewBox="0 0 250 150" enable-background="new 0 0 250 150" xml:space="preserve">
<g>
	<g>
		<path fill="#2F9642" d="M197.251,75.435c0-39.82-32.28-72.101-72.101-72.101c-39.82,0-72.101,32.281-72.101,72.101
			c0,11.714,2.796,22.773,7.753,32.552L98.917,41.97l53.876,61.678l-25.314,43.847C166.22,146.266,197.251,114.477,197.251,75.435z"
			/>
		<path opacity="0.9" fill="#135B31" d="M98.917,41.97l-38.115,66.017c11.894,23.465,36.242,39.549,64.348,39.549
			c0.779,0,1.554-0.017,2.329-0.041l25.314-43.847L98.917,41.97z"/>
	</g>
	<path fill="#C75462" d="M152.774,95.873c0,0-3.898,0-5.386,0h-41.74V40.315h41.74c1.487,0,5.386,0,5.386,0V95.873z"/>
	<g>
		<path fill="#646C76" d="M103.797,40.315c-3.49,0-6.32,1.993-6.32,4.453v4.356h1.396c0.819,0,1.483,0.664,1.483,1.482
			s-0.664,1.483-1.483,1.483h-1.396v5.756h1.396c0.819,0,1.483,0.664,1.483,1.483c0,0.819-0.664,1.483-1.483,1.483h-1.396v5.8h1.396
			c0.819,0,1.483,0.664,1.483,1.483c0,0.818-0.664,1.482-1.483,1.482h-1.396v5.911h1.396c0.819,0,1.483,0.664,1.483,1.483
			s-0.664,1.482-1.483,1.482h-1.396v5.646h1.396c0.819,0,1.483,0.663,1.483,1.482s-0.664,1.483-1.483,1.483h-1.396v12.991
			c0,2.459,2.83,4.453,6.32,4.453h1.851V40.315H103.797z"/>
		<path fill="#424953" d="M100.356,50.606c0-0.819-0.664-1.482-1.483-1.482h-1.396v2.965h1.396
			C99.692,52.089,100.356,51.425,100.356,50.606z"/>
		<path fill="#424953" d="M100.356,59.329c0-0.819-0.664-1.483-1.483-1.483h-1.396v2.966h1.396
			C99.692,60.812,100.356,60.147,100.356,59.329z"/>
		<path fill="#424953" d="M100.356,68.094c0-0.819-0.664-1.483-1.483-1.483h-1.396v2.965h1.396
			C99.692,69.577,100.356,68.913,100.356,68.094z"/>
		<path fill="#424953" d="M100.356,76.971c0-0.819-0.664-1.483-1.483-1.483h-1.396v2.965h1.396
			C99.692,78.453,100.356,77.79,100.356,76.971z"/>
		<path fill="#424953" d="M100.356,85.581c0-0.819-0.664-1.482-1.483-1.482h-1.396v2.966h1.396
			C99.692,87.064,100.356,86.4,100.356,85.581z"/>
	</g>
	<path fill="#E6E8EC" d="M118.2,55.477c0.67,0.23,1.021,0.973,0.786,1.658l-4.194,12.188c-0.236,0.686-0.97,1.054-1.639,0.824l0,0
		c-0.67-0.23-1.021-0.973-0.785-1.658l4.194-12.188C116.796,55.615,117.53,55.246,118.2,55.477L118.2,55.477z"/>
	<path fill="#E6E8EC" d="M117.351,55.477c-0.67,0.23-1.021,0.973-0.786,1.658l4.194,12.188c0.235,0.686,0.97,1.054,1.639,0.824l0,0
		c0.67-0.23,1.021-0.973,0.785-1.658L118.99,56.3C118.754,55.615,118.02,55.246,117.351,55.477L117.351,55.477z"/>
	<path fill="#E6E8EC" d="M137.632,55.477c-0.67,0.23-1.021,0.973-0.785,1.658l4.193,12.188c0.235,0.686,0.971,1.054,1.64,0.824l0,0
		c0.669-0.23,1.021-0.973,0.784-1.658L139.271,56.3C139.035,55.615,138.301,55.246,137.632,55.477L137.632,55.477z"/>
	<path fill="#E6E8EC" d="M138.396,55.477c0.67,0.23,1.021,0.973,0.786,1.658l-4.195,12.188c-0.235,0.686-0.969,1.054-1.639,0.824
		l0,0c-0.67-0.23-1.021-0.973-0.785-1.658l4.193-12.188C136.993,55.615,137.727,55.246,138.396,55.477L138.396,55.477z"/>
	<path fill="#EBC45C" d="M123.605,69.577c0,3.158-2.56,5.719-5.719,5.719c-3.158,0-5.718-2.561-5.718-5.719
		C116.753,69.533,118.236,69.62,123.605,69.577z"/>
	<path fill="#EBC45C" d="M143.946,69.577c0,3.158-2.561,5.719-5.719,5.719s-5.718-2.561-5.718-5.719
		C137.094,69.533,138.577,69.62,143.946,69.577z"/>
	<path fill="#E5B349" d="M127.884,52.089c0.739,0,1.339,1.073,1.339,2.397v23.551c0,1.324-0.6,2.397-1.339,2.397l0,0
		c-0.741,0-1.341-1.073-1.341-2.397V54.487C126.543,53.162,127.143,52.089,127.884,52.089L127.884,52.089z"/>
	<path fill="#424953" d="M138.228,79.793c0,0.74-0.784,1.341-1.751,1.341h-17.188c-0.967,0-1.75-0.601-1.75-1.341l0,0
		c0-0.74,0.783-1.34,1.75-1.34h17.188C137.443,78.453,138.228,79.053,138.228,79.793L138.228,79.793z"/>
	<path fill="#EBC45C" d="M139.604,56.319c0,0.843-0.889,1.526-1.984,1.526h-19.493c-1.096,0-1.984-0.683-1.984-1.526l0,0
		c0-0.843,0.888-1.526,1.984-1.526h19.493C138.716,54.793,139.604,55.476,139.604,56.319L139.604,56.319z"/>
	<g>
		<path fill="#E6E8EC" d="M139.693,100.146c-0.81,0-1.466-0.624-1.466-1.395c0-0.771,0.656-1.396,1.466-1.396h11.546
			c0.078,0,0.152,0.011,0.228,0.021v-1.505h-48.334c-1.774,0-3.212,1.347-3.212,3.009s1.438,3.01,3.212,3.01h48.334v-1.766
			c-0.075,0.01-0.149,0.021-0.228,0.021H139.693z"/>
	</g>
	<path fill="#CACFD7" d="M117.538,98.752c0,0.771-0.657,1.395-1.466,1.395h-11.545c-0.81,0-1.467-0.624-1.467-1.395l0,0
		c0-0.771,0.657-1.396,1.467-1.396h11.545C116.881,97.356,117.538,97.98,117.538,98.752L117.538,98.752z"/>
	<path fill="#CACFD7" d="M151.239,97.356h-11.546c-0.81,0-1.466,0.624-1.466,1.396c0,0.771,0.656,1.395,1.466,1.395h11.546
		c0.078,0,0.152-0.011,0.228-0.021v-2.748C151.392,97.367,151.317,97.356,151.239,97.356z"/>
	<path fill="#C75462" d="M105.279,101.892h44.935c2.956,0,2.561,0.625,2.561,1.396c0,0.771,0.396,1.396-2.561,1.396h-44.935
		c-0.284,0-0.556-0.011-0.829-0.021v-2.748C104.723,101.901,104.995,101.892,105.279,101.892z"/>
	<path fill="#EBC45C" d="M116.143,103.724c0,2.312,0.465,6.977-1.396,6.977l-4.448-1.395l-4.274,1.395
		c-2.035,0-1.104-3.866-1.395-6.977v-4.842h11.513V103.724z"/>
</g>
</svg>
