<?xml version="1.0" encoding="utf-8"?>
<!-- Generator: Adobe Illustrator 16.0.0, SVG Export Plug-In . SVG Version: 6.00 Build 0)  -->
<!DOCTYPE svg PUBLIC "-//W3C//DTD SVG 1.1//EN" "http://www.w3.org/Graphics/SVG/1.1/DTD/svg11.dtd">
<svg version="1.1" id="Capa_1" xmlns="http://www.w3.org/2000/svg" xmlns:xlink="http://www.w3.org/1999/xlink" x="0px" y="0px"
	 width="250px" height="150px" viewBox="0 0 250 150" enable-background="new 0 0 250 150" xml:space="preserve">
<g>
	<circle fill="#1E98B0" cx="124.873" cy="75.43" r="71.957"/>
	<g opacity="0.5">
		<path fill="#002B43" d="M121.876,147.32l11.97-23.505l-10.602-34.384l-8.84-37.91l-11.093,14.391l-0.033-41.476L60.71,108.03
			C72.174,130.551,95.144,146.224,121.876,147.32z"/>
		<polygon fill="#002B43" points="75.318,99.093 84.188,106.02 126.84,32.144 117.971,25.219 		"/>
	</g>
	<g>
		<g>
			<g>
				<polygon fill="#3B5890" stroke="#FFFFFF" stroke-width="0.15" stroke-miterlimit="10" points="147.769,42.582 147.769,32.216 
					147.614,31.618 147.334,32.704 147.334,42.582 				"/>
				<path fill="#3B5890" stroke="#FFFFFF" stroke-width="0.15" stroke-miterlimit="10" d="M147.769,32.216l2.679,10.37
					c0.149-0.001,0.298-0.002,0.449-0.003l-3.016-11.672l-0.167,0.094L147.769,32.216z"/>
				<path fill="#3B5890" stroke="#FFFFFF" stroke-width="0.15" stroke-miterlimit="10" d="M147.334,32.704l0.28-1.725l-0.267-0.069
					l-3.016,11.671c0.15,0,0.297,0,0.45,0L147.334,32.704z"/>
				<path fill="#3B5890" stroke="#FFFFFF" stroke-miterlimit="10" d="M150.896,42.583c-0.151,0.001-0.3,0.002-0.449,0.003
					L150.896,42.583z"/>
				<path fill="#3B5890" stroke="#FFFFFF" stroke-width="0.5" stroke-miterlimit="10" d="M150.896,42.583l-0.449,0.003
					c-2.139,0.012-4.016,0-5.665-0.003l-0.45,0c-0.116,0-0.234,0-0.35,0c0,1.226,1.598,2.22,3.569,2.22
					c1.971,0,3.568-0.994,3.568-2.22C151.044,42.583,150.972,42.583,150.896,42.583z"/>
			</g>
		</g>
		<g>
			<g>
				<polygon fill="#3B5890" stroke="#FFFFFF" stroke-width="0.15" stroke-miterlimit="10" points="157.779,42.582 157.779,32.216 
					157.934,31.618 158.214,32.704 158.214,42.582 				"/>
				<path fill="#3B5890" stroke="#FFFFFF" stroke-width="0.15" stroke-miterlimit="10" d="M157.779,32.216l-2.679,10.37
					c-0.148-0.001-0.298-0.002-0.449-0.003l3.016-11.672l0.168,0.094L157.779,32.216z"/>
				
					<line fill="#3B5890" stroke="#FFFFFF" stroke-width="0.25" stroke-miterlimit="10" x1="157.835" y1="31.004" x2="157.92" y2="31.538"/>
				
					<line fill="#3B5890" stroke="#FFFFFF" stroke-width="0.25" stroke-miterlimit="10" x1="157.779" y1="32.216" x2="157.934" y2="31.618"/>
				<path fill="#3B5890" stroke="#FFFFFF" stroke-width="0.15" stroke-miterlimit="10" d="M158.214,32.704l-0.28-1.725l0.267-0.069
					l3.016,11.671c-0.149,0-0.297,0-0.45,0L158.214,32.704z"/>
				
					<line fill="#3B5890" stroke="#FFFFFF" stroke-width="0.25" stroke-miterlimit="10" x1="158.214" y1="32.704" x2="157.934" y2="31.618"/>
				
					<line fill="#3B5890" stroke="#FFFFFF" stroke-width="0.25" stroke-miterlimit="10" x1="157.835" y1="31.004" x2="157.934" y2="31.618"/>
				<path fill="#3B5890" stroke="#FFFFFF" stroke-width="0.5" stroke-miterlimit="10" d="M154.651,42.583l0.449,0.003
					c2.139,0.012,4.016,0,5.665-0.003l0.45,0c0.116,0,0.235,0,0.35,0c0,1.226-1.598,2.22-3.568,2.22
					c-1.972,0-3.569-0.994-3.569-2.22C154.504,42.583,154.577,42.583,154.651,42.583z"/>
				<path fill="#3B5890" stroke="#FFFFFF" stroke-width="0.25" stroke-miterlimit="10" d="M154.651,42.583
					c0.151,0.001,0.301,0.002,0.449,0.003L154.651,42.583z"/>
			</g>
		</g>
		<path fill="#3B5890" stroke="#FFFFFF" stroke-width="0.25" stroke-miterlimit="10" d="M135.96,96.982
			c-0.913,0.226-1.295,0.072-1.277,0.642c0.03,0.898,1.821,0.963,2.961,1.624c0.513,0.299,0.775,0.761,0.862,1.084v-4.819
			C137.806,96.171,136.909,96.746,135.96,96.982z"/>
		<path fill="#3B5890" stroke="#FFFFFF" stroke-width="0.5" stroke-miterlimit="10" d="M138.402,44.801
			c-1.744,8.331-6.074,13.763-8.548,16.826l0,0c0.407,2.188,0.744,4.161,0.767,4.805c0.058,1.683,0.174,9.574,0,12.011
			c-0.174,2.438-0.754,7.283-0.87,9.72c-0.116,2.438,0.116,9.427,0.639,13.662c0.14,1.135,0.38,3.08,0.672,5.364v0.002
			c0,0,1.91-0.501,4.086-1.938c2.176-1.436,3.377-2.742,3.395-4.7c0.003-0.283-0.251-0.929-0.898-1.306
			c-1.14-0.661-2.931-0.726-2.961-1.624c-0.018-0.569,0.364-0.416,1.277-0.642c2.118-0.526,3.975-2.739,3.975-3.784
			c0-1.262,0-48.397,0-48.397H138.402z"/>
		<path fill="#3B5890" stroke="#FFFFFF" stroke-width="0.5" stroke-miterlimit="10" d="M109.208,124.578
			c0,0,4.997-25.068,4.353-36.415c-0.291-5.105-1.509-18.365-1.045-21.731c0.464-3.366,2.438-11.026,2.089-12.418
			c2.031,0,13.752,0,13.752,0s2.205,10.736,2.264,12.418c0.058,1.683,0.174,9.574,0,12.011c-0.174,2.438-0.754,7.283-0.87,9.72
			c-0.116,2.438,0.116,9.427,0.639,13.662c0.521,4.236,2.438,19.731,3.25,22.343c-0.851,0.592-3.392,0.115-3.476,0.149
			c-0.252,0.101,0.355,1.759,0.109,1.762c-1.466,0.021-4.097-1.314-4.097-1.314s-0.351,0.001-0.431-0.001
			c-0.102-0.002,0,0.768,0,1.147c-1.871,0.698-6.47,0.67-8.459,0c0-0.389-0.017-1.147-0.017-1.147h-0.397
			c0,0-3.09,1.431-4.188,1.428c-0.373,0-0.136-1.063-0.189-1.874C110.681,124.777,109.208,124.578,109.208,124.578z"/>
		<path fill="none" stroke="#FFFFFF" stroke-width="0.5" stroke-miterlimit="10" d="M117.411,54.014c0,0-2.283,8.589-2.457,12.94
			c-0.174,4.353,1.062,15.577,1.177,21.314c0.128,6.366-0.126,10.446-1.177,18.117s-2.458,19.324-2.458,19.324"/>
		<path fill="none" stroke="#FFFFFF" stroke-width="0.5" stroke-miterlimit="10" d="M120.06,54.101c0,0-0.173,38.083-0.382,43.266
			c-0.408,10.172-2.613,27.397-2.613,27.397"/>
		<path fill="none" stroke="#FFFFFF" stroke-width="0.5" stroke-miterlimit="10" d="M122.294,53.784c0,0,0.505,8.989,0.612,13.662
			c0.108,4.673,0.389,15.45,0.338,21.986c-0.039,4.998,0.815,17.937,1.635,26.14c0.287,2.878,0.751,7.232,1.298,9.193"/>
		<path fill="none" stroke="#FFFFFF" stroke-width="0.5" stroke-miterlimit="10" d="M125.616,53.784c0,0,1.113,7.362,1.81,10.324
			c1.106,4.703-0.982,15.032-0.751,23.563c0.232,8.529,0.515,8.468,1.215,18.217c0.701,9.75,2.274,18.43,2.274,18.43"/>
		<path fill="none" stroke="#030104" stroke-miterlimit="10" d="M121.046,50.217c-0.475,1.979-2.465,3.199-4.443,2.724
			c-1.979-0.474-3.198-2.463-2.724-4.442"/>
		<polygon fill="#3B5890" stroke="#FFFFFF" stroke-width="0.25" stroke-miterlimit="10" points="153.166,30.308 153.166,27.175 
			152.426,27.175 152.426,30.308 147.116,30.308 147.116,31.004 152.426,31.004 153.166,31.004 158.476,31.004 158.476,30.308 		"/>
		<g>
			<g>
				<path fill="#3B5890" stroke="#FFFFFF" stroke-width="0.5" stroke-miterlimit="10" d="M117.763,32.186
					c0.017,0.128,0.036,0.253,0.057,0.378C117.8,32.439,117.78,32.314,117.763,32.186z"/>
				<path fill="#3B5890" stroke="#FFFFFF" stroke-width="0.5" stroke-miterlimit="10" d="M117.865,32.817
					c0.022,0.116,0.043,0.232,0.07,0.346C117.909,33.049,117.887,32.933,117.865,32.817z"/>
				<path fill="#3B5890" stroke="#FFFFFF" stroke-width="0.5" stroke-miterlimit="10" d="M117.688,31.256
					c0.012,0.279,0.033,0.552,0.064,0.819C117.721,31.808,117.699,31.535,117.688,31.256z"/>
				<path fill="#3B5890" stroke="#FFFFFF" stroke-width="0.5" stroke-miterlimit="10" d="M118.06,33.646
					c0.01,0.034,0.017,0.072,0.027,0.106c0,0,0,0-0.001,0c-0.261,0.06-0.826,0.31-0.97-0.043c-0.283-0.689-0.466-1.455-0.534-2.265
					c-1.295,0.642-1.949,2.085-1.774,3.564c0.189,1.588,1.265,2.318,1.842,2.698c0.653,0.522,1.146,1.742,1.522,1.742
					c0.238,0,0.458-0.042,0.664-0.113c0.386-0.755,0.535-1.481,0.542-3.123c0.405,0.404,0.794,0.644,1.229,0.771
					c0.003-0.013,0.006-0.026,0.008-0.039C119.433,36.533,118.537,35.301,118.06,33.646z"/>
			</g>
		</g>
		<g>
			<g>
				<path fill="#3B5890" stroke="#FFFFFF" stroke-width="0.5" stroke-miterlimit="10" d="M125.277,31.913
					c0.021-0.208,0.035-0.419,0.045-0.634C125.313,31.493,125.298,31.705,125.277,31.913z"/>
				<path fill="#3B5890" stroke="#FFFFFF" stroke-width="0.5" stroke-miterlimit="10" d="M125.031,33.336
					c0.038-0.151,0.072-0.306,0.104-0.463C125.104,33.031,125.069,33.185,125.031,33.336z"/>
				<path fill="#3B5890" stroke="#FFFFFF" stroke-width="0.5" stroke-miterlimit="10" d="M125.192,32.56
					c0.02-0.118,0.037-0.237,0.053-0.358C125.23,32.322,125.212,32.441,125.192,32.56z"/>
				<path fill="#3B5890" stroke="#FFFFFF" stroke-width="0.5" stroke-miterlimit="10" d="M126.413,31.394
					c-0.065,0.828-0.247,1.611-0.537,2.314c-0.152,0.372-0.536,0.186-0.974,0.118c0,0-0.001,0-0.002,0.001
					c0.016-0.05,0.026-0.104,0.041-0.155c-0.467,1.599-1.327,2.799-2.46,3.238c0,0.003,0.001,0.006,0.001,0.008
					c0.424-0.155,0.822-0.406,1.185-0.739c0.182,1.319,0.236,2.549,0.824,3.216c0.142,0.032,0.288,0.053,0.444,0.053
					c0.376,0,0.869-1.22,1.522-1.742c0.576-0.38,1.653-1.11,1.842-2.698C128.48,33.488,127.782,32.005,126.413,31.394z"/>
			</g>
		</g>
		<path fill="#3B5890" stroke="#FFFFFF" stroke-width="0.5" stroke-miterlimit="10" d="M125.34,30.759
			c0,3.502-1.524,6.341-3.834,6.341s-3.834-2.839-3.834-6.341c0-0.695,0.074-1.363,0.21-1.989c0.134-0.615,1.316-0.634,1.947-0.957
			c0.533-0.273,0.818-0.888,1.497-0.955c0.067-0.006,0.243-0.019,0.461-0.005c0.47,0.032,1.05,0.76,1.458,0.901
			c0.83,0.289,1.719,0.349,1.854,0.874C125.269,29.292,125.34,30.012,125.34,30.759z"/>
		<path fill="#3B5890" stroke="#FFFFFF" stroke-width="0.5" stroke-miterlimit="10" d="M123.667,36.18
			c-0.631,0.58-1.369,0.92-2.162,0.92c-0.849,0-1.467-0.228-2.127-0.886c-0.007,1.907-0.207,2.579-0.747,3.496
			c-0.666,1.129-2.459,1.852-3.823,2.229c0.29,2.182,2.881,4.184,6.47,4.184s6.499-2.053,6.499-4.584c0-0.9-1.74-0.754-3.162-2.002
			C123.902,38.91,123.86,37.591,123.667,36.18z"/>
		<g>
			<g>
				<path fill="#3B5890" stroke="#FFFFFF" stroke-width="0.5" stroke-miterlimit="10" d="M123.244,27.755
					c-0.407-0.141-0.988-0.87-1.458-0.901c-0.218-0.014-0.395-0.001-0.461,0.005c-0.679,0.066-0.964,0.682-1.497,0.955
					c-0.631,0.323-1.813,0.342-1.947,0.957c-0.018,0.084-0.032,0.17-0.048,0.255c0.962,0.087,2.262,0.173,3.627,0.173
					c1.413,0,2.752-0.092,3.723-0.182c-0.025-0.13-0.052-0.261-0.084-0.388C124.963,28.104,124.074,28.044,123.244,27.755z"/>
				<path fill="#3B5890" stroke="#FFFFFF" stroke-width="0.5" stroke-miterlimit="10" d="M117.116,33.709
					c0.145,0.353,0.709,0.103,0.97,0.043c0,0,0.001,0,0.001,0c-0.208-0.687-0.34-1.45-0.391-2.258
					c-0.487-0.027-0.865-0.053-1.116-0.072C116.647,32.24,116.83,33.014,117.116,33.709z"/>
				<path fill="#3B5890" stroke="#FFFFFF" stroke-width="0.5" stroke-miterlimit="10" d="M124.9,33.828
					c0.001,0,0.002-0.001,0.002-0.001c0.438,0.067,0.821,0.253,0.974-0.118c0.287-0.697,0.469-1.472,0.536-2.292
					c-0.232,0.018-0.607,0.045-1.097,0.073C125.263,32.329,125.122,33.12,124.9,33.828z"/>
				<path fill="#3B5890" stroke="#FFFFFF" stroke-width="0.5" stroke-miterlimit="10" d="M117.881,28.77
					c0.134-0.615,1.316-0.634,1.947-0.957c0.533-0.273,0.818-0.888,1.497-0.955c0.067-0.006,0.243-0.019,0.461-0.005
					c0.47,0.032,1.05,0.76,1.458,0.901c0.83,0.289,1.719,0.349,1.854,0.874c0.032,0.126,0.059,0.257,0.084,0.388
					c0.429-0.04,0.785-0.079,1.042-0.109c-0.024-0.101-0.046-0.203-0.074-0.301c-0.116-0.415,0.082-1.284-0.096-1.702
					c-0.179-0.418-0.733-0.732-0.965-1.046c-0.821-1.112-1.953-1.3-3.217-1.422c-0.124-0.012-0.25,0.33-0.376,0.33
					c-0.147,0-0.292-0.34-0.435-0.324c-1.166,0.13-2.216,0.43-3.009,1.416c-0.255,0.316-0.831,0.667-1.028,1.046
					c-0.227,0.439-0.065,1.265-0.203,1.771c-0.021,0.079-0.038,0.16-0.057,0.24c0.271,0.032,0.632,0.07,1.067,0.109
					C117.849,28.94,117.863,28.854,117.881,28.77z"/>
				<path fill="#3B5890" stroke="#FFFFFF" stroke-width="0.5" stroke-miterlimit="10" d="M125.183,29.017
					c-0.971,0.09-2.311,0.182-3.723,0.182c-1.365,0-2.665-0.086-3.627-0.173c-0.103,0.552-0.162,1.132-0.162,1.733
					c0,0.249,0.01,0.494,0.025,0.735c0.928,0.051,2.241,0.102,3.763,0.102c1.576,0,2.922-0.055,3.856-0.107
					c0.015-0.24,0.024-0.482,0.024-0.73C125.34,30.155,125.29,29.569,125.183,29.017z"/>
				<path fill="#3B5890" stroke="#FFFFFF" stroke-width="0.5" stroke-miterlimit="10" d="M117.833,29.025
					c-0.435-0.039-0.796-0.078-1.067-0.109c-0.139,0.583-0.216,1.201-0.216,1.843c0,0.225,0.014,0.444,0.031,0.663
					c0.25,0.019,0.628,0.045,1.116,0.072c-0.016-0.241-0.025-0.486-0.025-0.735C117.671,30.157,117.729,29.577,117.833,29.025z"/>
				<path fill="#3B5890" stroke="#FFFFFF" stroke-width="0.5" stroke-miterlimit="10" d="M126.225,28.908
					c-0.257,0.03-0.613,0.069-1.042,0.109c0.107,0.553,0.157,1.138,0.157,1.742c0,0.248-0.01,0.49-0.024,0.73
					c0.489-0.028,0.864-0.055,1.097-0.073c0.017-0.216,0.031-0.435,0.031-0.657C126.443,30.114,126.364,29.494,126.225,28.908z"/>
			</g>
		</g>
		<path fill="#3B5890" stroke="#FFFFFF" stroke-width="0.5" stroke-miterlimit="10" d="M114.257,53.784h8.488
			c1.689-3.432,2.678-6.617,3.252-9.101c-1.186,0.884-2.858,1.438-4.72,1.438c-3.397,0-6.182-1.84-6.47-4.184
			c-1.187,0.28-3.107,1.666-3.569,2.094c-0.514,0.478-1.334,2.959-1.334,2.959s1.818,2.39,2.351,3.221
			C112.787,51.043,114.257,53.784,114.257,53.784z"/>
		<path fill="#3B5890" stroke="#FFFFFF" stroke-width="0.5" stroke-miterlimit="10" d="M152.324,25.813c0,0-0.986-0.771-2.901-0.406
			c-1.915,0.365-4.091,1.768-4.759,2.844c-0.46,0.742-3.628,7.534-5.548,11.672c-0.177,1.994-0.472,3.828-0.854,5.514
			c1.066-0.051,3.207-0.255,3.937-1.071c0.986-1.103,4.052-14.191,4.309-15.364c1.466,0.158,4.309-0.783,5.005-1.564
			c1.175,0.129,2.321-0.348,2.321-0.348L152.324,25.813z"/>
		
			<line fill="none" stroke="#FFFFFF" stroke-width="0.5" stroke-miterlimit="10" x1="134.683" y1="97.624" x2="134.683" y2="54.944"/>
		<g>
			<g>
				<path fill="#3B5890" stroke="#FFFFFF" stroke-width="0.5" stroke-miterlimit="10" d="M134.408,39.535c2.061,0,3.943,0,4.743,0
					c-0.957,11.969-6.18,18.236-9.096,21.849s-10.489,9.792-17.975,8.878c0.011-0.395,0.016-0.798,0.018-1.181"/>
				<path fill="#3B5890" stroke="#FFFFFF" stroke-width="0.5" stroke-miterlimit="10" d="M134.408,39.535c-3.545,0-7.617,0-7.617,0
					s-0.246,7.126-4.613,15.363c-5.745,10.837-10.097,12.1-10.097,12.1s0.023,0.95,0.018,2.083"/>
				<path fill="none" stroke="#FFFFFF" stroke-width="0.5" stroke-miterlimit="10" d="M134.408,39.535c0,0-0.436,9.88-7.008,18.497
					c-6.422,8.422-14.918,10.939-15.302,11.049"/>
			</g>
		</g>
		<path fill="none" stroke="#030104" stroke-miterlimit="10" d="M105.113,70.714c-0.361-0.152-0.804,0.081-0.989,0.52l-0.036,0.087
			c0.547,0.347,1.036,0.676,1.202,0.789c0.011-0.022,0.024-0.042,0.034-0.065l0.11-0.261
			C105.618,71.346,105.475,70.866,105.113,70.714z"/>
		<path fill="#3B5890" stroke="#FFFFFF" stroke-width="0.5" stroke-miterlimit="10" d="M105.355,72.155
			C105.355,72.155,105.355,72.155,105.355,72.155l7.586-20.769c-0.271-0.481-0.523-0.918-0.687-1.174
			c-0.488-0.761-2.048-2.823-2.309-3.167l-6.861,23.667C104.02,71.244,105.355,72.155,105.355,72.155z"/>
		<path fill="#3B5890" stroke="#FFFFFF" stroke-width="0.5" stroke-miterlimit="10" d="M109.6,66.563h-4.811l0.012-0.13
			l0.058-33.151l-1.446-8.845l-1.4,8.845l0.174,33.035l0.021,0.246h-5.186c-0.529,0-0.958,0.429-0.958,0.958
			s1.125,1.306,1.654,1.306l1.474-0.679l3.179-0.366l0.663,8.482c-0.616,0.176-1.07,0.736-1.07,1.408
			c0,0.813,0.659,1.472,1.472,1.472c0.813,0,1.472-0.659,1.472-1.472c0-0.652-0.428-1.199-1.017-1.393l0.721-8.498l3.184,0.427
			l1.108,0.618c0.529,0,1.654-0.777,1.654-1.306S110.129,66.563,109.6,66.563z"/>
		<path fill="#3B5890" stroke="#FFFFFF" stroke-width="0.5" stroke-miterlimit="10" d="M104.769,74.179
			c-0.461,1.07-0.871,1.306-0.871,1.306c-2.308,0-2.756-0.855-2.756-1.91v-2.137c0-1.055,0.577-1.254,1.199-1.084
			c0.622,0.17,3.015,1.801,3.015,1.801C105.061,73.34,104.769,74.179,104.769,74.179z"/>
	</g>
</g>
</svg>
