<?xml version="1.0" encoding="utf-8"?>
<!-- Generator: Adobe Illustrator 16.0.0, SVG Export Plug-In . SVG Version: 6.00 Build 0)  -->
<!DOCTYPE svg PUBLIC "-//W3C//DTD SVG 1.1//EN" "http://www.w3.org/Graphics/SVG/1.1/DTD/svg11.dtd">
<svg version="1.1" id="Capa_1" xmlns="http://www.w3.org/2000/svg" xmlns:xlink="http://www.w3.org/1999/xlink" x="0px" y="0px"
	 width="250px" height="150px" viewBox="0 0 250 150" enable-background="new 0 0 250 150" xml:space="preserve">
<g>
	<g>
		<path fill="#499889" d="M196.87,75.52c0-39.844-32.301-72.145-72.146-72.145S52.58,35.676,52.58,75.52
			c0,13.604,3.766,26.323,10.309,37.181l26.739-44.978l1.147-0.04l22.654-32.878l14.191-4.096l6.156-8.342l25.396,7.805
			l-24.071,30.966l3.635,19.015l12.312,55.815l-4.885,8.461C175.539,135.296,196.87,107.899,196.87,75.52z"/>
		<path fill="#3B7B6E" d="M138.737,80.151l-3.635-19.015l24.071-30.966l-25.396-7.805l-6.156,8.342l-14.191,4.096L90.775,67.682
			l-1.147,0.04L62.889,112.7c12.625,20.95,35.592,34.966,61.836,34.966c7.466,0,14.667-1.134,21.439-3.238l4.885-8.461
			L138.737,80.151z"/>
	</g>
	<path fill="#343131" d="M112.66,38.475c0-5.183,4.338-9.384,9.688-9.384c5.351,0,9.669,4.319,9.669,10.842
		c0,0.951-0.965,3.067-1.565,2.107c-0.782-1.251,0.262-3.571-0.822-3.565c-1.72,0.481-3.564,2.935-6.414,1.338
		c-1.607-0.901-1.294-1.795-3.458-2.526c-1.267-0.428-4.188-1.292-4.662,0.366c-0.615,2.153-0.4,4.409-0.811,4.742
		C113.737,42.838,112.66,40.697,112.66,38.475z"/>
	<rect x="92.552" y="73.57" fill="#633F31" width="58.497" height="62.396"/>
	<g>
		<line fill="none" stroke="#201813" stroke-width="2" stroke-miterlimit="10" x1="97.061" y1="67.682" x2="102.529" y2="67.682"/>
	</g>
	<polyline fill="none" stroke="#201813" stroke-miterlimit="10" points="99.924,67.722 99.924,59.131 105.134,53.921 	"/>
	<circle fill="#201813" cx="104.921" cy="54.013" r="1.645"/>
	<rect x="89.628" y="67.722" fill="#664235" width="64.588" height="5.848"/>
	<path fill="#C54747" d="M128.802,57.756h-2.669c0,1.955-1.585,3.54-3.539,3.54c-1.956,0-3.541-1.585-3.541-3.54h-2.795
		c-4.013,0-7.58,3.253-7.58,7.267c0,0.991,0.202,1.934,0.56,2.794h26.585c0.358-0.86,0.56-1.803,0.56-2.794
		C136.383,61.01,132.816,57.756,128.802,57.756z"/>
	<path fill="#E8C1B7" d="M122.591,55.171c-1.185,0-2.31-0.314-3.33-0.873c-0.083,0.299-0.143,0.607-0.143,0.933v2.62
		c0,1.918,1.555,3.473,3.474,3.473s3.473-1.555,3.473-3.473v-2.62c0-0.326-0.061-0.634-0.144-0.933
		C124.901,54.856,123.775,55.171,122.591,55.171z"/>
	<g>
		<g>
			<path fill="#343131" d="M117.382,55.171C117.42,55.16,117.416,55.162,117.382,55.171L117.382,55.171z"/>
			<path fill="#343131" d="M114.727,48.174c-1.92,0.266-3.03,1.67-3.03,2.913c0,1.646,1.869,1.457,2.547,2.468
				c1.297,1.929,2.922,1.664,3.139,1.615c0.598-0.524,1.035-0.872,1.362-1.186C116.881,52.767,115.434,50.692,114.727,48.174z"/>
		</g>
	</g>
	<g>
		<g>
			<path fill="#343131" d="M127.647,55.171L127.647,55.171C127.614,55.162,127.61,55.16,127.647,55.171z"/>
			<path fill="#343131" d="M130.454,48.187c-0.723,2.552-2.204,4.646-4.109,5.854c0.323,0.3,0.74,0.635,1.303,1.129
				c0.217,0.048,1.843,0.314,3.139-1.615c0.68-1.011,2.548-0.823,2.548-2.468C133.334,49.874,132.286,48.501,130.454,48.187z"/>
		</g>
	</g>
	<path fill="#E8C1B7" d="M132.786,42.105c-0.515-0.241-1.231-0.06-1.889,0.379c-0.002-0.078-0.005-0.151-0.007-0.232
		c-0.155,0.043-0.306,0-0.438-0.212c-0.782-1.251,0.262-3.571-0.822-3.565c-1.72,0.481-3.564,2.935-6.414,1.338
		c-1.607-0.901-1.294-1.795-3.458-2.526c-1.267-0.428-4.188-1.292-4.662,0.366c-0.615,2.153-0.4,4.409-0.811,4.742
		c-0.001,0.052-0.002,0.098-0.003,0.148c-0.679-0.484-1.437-0.689-1.974-0.438c-0.939,0.441-1.061,1.525-0.386,2.964
		c0.168,0.359,1.627,1.212,1.643,1.728c0.029,0.964,0.42,1.08,1.019,0.847c1.016,4.348,4.213,7.527,8.005,7.527
		c3.784,0,6.975-3.163,8.001-7.496c0.553,0.191,0.909,0.042,0.936-0.878c0.018-0.516,1.477-1.368,1.645-1.728
		C133.849,43.63,133.726,42.546,132.786,42.105z"/>
	<path fill="#A94B46" d="M124.725,50.837c0,0.664-0.966,1.188-2.194,1.188c-1.229,0-2.254-0.523-2.254-1.188
		c0-0.583,0.762-0.831,1.775-0.943c0.145-0.016,0.295,0.188,0.448,0.188c0.135,0,0.267-0.206,0.396-0.193
		C123.936,49.99,124.725,50.244,124.725,50.837z"/>
	<polygon fill="#563729" points="101.813,126.978 142.517,126.978 122.165,104.662 	"/>
	<polygon fill="#6E4734" points="122.165,104.662 142.517,126.978 142.517,82.346 	"/>
	<polygon fill="#81523E" points="101.813,82.346 101.813,126.978 122.165,104.662 	"/>
	<polygon fill="#8C5641" points="142.517,82.346 101.813,82.346 122.165,104.662 	"/>
	<rect x="92.552" y="73.57" fill="#392119" width="58.497" height="3.304"/>
	<path fill="#FFFFFF" d="M163.761,23.677c0,4.997-6.752,9.049-15.08,9.049c-2.63,0-5.104-0.405-7.259-1.116
		c-0.626-0.207-5.325,3.095-5.608,2.843c-0.308-0.274,2.706-4.077,2.205-4.378c-2.731-1.636-4.419-3.899-4.419-6.398
		c0-4.997,6.752-9.048,15.081-9.048C157.009,14.628,163.761,18.68,163.761,23.677z"/>
</g>
</svg>
